<svg xmlns="http://www.w3.org/2000/svg" viewBox="0 0 64 64" role="img" aria-label="iOS Lab UNAM">
  <rect width="64" height="64" rx="12" fill="#111827"/>
  <path fill="#fff" d="M36.4 18.2c-1.1.1-2.5.8-3.3 1.7-.7.8-1.4 2.1-1.1 3.3 1.3.1 2.6-.7 3.4-1.5.8-.9 1.4-2.2 1-3.5zM40.8 26.1c-2.3-.1-4.2 1.3-5.3 1.3-1.1 0-2.8-1.2-4.6-1.2-2.4.1-4.5 1.4-5.7 3.5-2.4 4.2-.6 10.4 1.7 13.8 1.1 1.7 2.5 3.5 4.3 3.5 1.7-.1 2.4-1.1 4.5-1.1s2.7 1.1 4.5 1.1c1.8 0 3-1.7 4.1-3.4 1.3-1.9 1.8-3.8 1.8-3.9-.1 0-3.5-1.3-3.5-5.4 0-3.4 2.8-5 2.9-5.1-1.6-2.4-4.1-2.6-5-2.7z"/>
  <text x="32" y="56" text-anchor="middle" font-family="system-ui,sans-serif" font-size="8" font-weight="600" fill="#9CA3AF">iOS LAB</text>
</svg>
